<svg width="21" height="21" viewBox="0 0 21 21" fill="none" xmlns="http://www.w3.org/2000/svg">
<path d="M12.7985 20.7395C12.8439 20.7281 12.8925 20.7167 12.9427 20.707C18.5724 19.355 22.0572 13.6777 20.7109 8.04908C20.0596 5.3224 18.3829 3.01448 15.9949 1.54889C13.6069 0.0833042 10.7929 -0.35816 8.05985 0.29267C5.33167 0.946747 3.02309 2.62495 1.55531 5.01404C0.0875404 7.40312 -0.359594 10.2223 0.29167 12.949C0.942933 15.6773 2.61969 17.9836 5.00765 19.4508C7.35674 20.8872 10.1173 21.3448 12.7985 20.7395ZM8.78403 2.85704C10.7864 2.40422 12.8471 2.74668 14.5984 3.81787C16.3837 4.91179 17.6312 6.63543 18.1172 8.66745C19.1232 12.8678 16.5214 17.1039 12.3206 18.1102C10.2826 18.602 8.18298 18.266 6.40254 17.1721C4.61723 16.0782 3.36979 14.3545 2.88377 12.3225C2.39776 10.2888 2.73149 8.18379 3.82665 6.40333C4.92181 4.62126 6.64715 3.36829 8.68033 2.87976C8.71111 2.87327 8.74676 2.86516 8.78403 2.85704Z" fill="url(#paint0_linear_132_2181)"/>
<defs>
<linearGradient id="paint0_linear_132_2181" x1="0.147887" y1="9.83471" x2="21.001" y2="9.77684" gradientUnits="userSpaceOnUse">
<stop stop-color="#9C3BE6"/>
<stop offset="1" stop-color="#E78B3C"/>
</linearGradient>
</defs>
</svg>
