<svg width="33" height="33" viewBox="0 0 33 33" fill="none" xmlns="http://www.w3.org/2000/svg">
<path d="M18.4421 4.32642H4.99194C4.10014 4.32642 3.24486 4.68068 2.61426 5.31128C1.98366 5.94189 1.62939 6.79716 1.62939 7.68897V24.5017M1.62939 24.5017V27.8643C1.62939 28.7561 1.98366 29.6113 2.61426 30.2419C3.24486 30.8725 4.10014 31.2268 4.99194 31.2268H25.1672C26.059 31.2268 26.9143 30.8725 27.5449 30.2419C28.1755 29.6113 28.5298 28.7561 28.5298 27.8643V21.1392M1.62939 24.5017L9.33972 16.7914C9.97029 16.161 10.8254 15.8069 11.717 15.8069C12.6087 15.8069 13.4638 16.161 14.0944 16.7914L18.4421 21.1392M28.5298 14.4141V21.1392M28.5298 21.1392L25.8633 18.4727C25.2327 17.8423 24.3776 17.4882 23.486 17.4882C22.5943 17.4882 21.7392 17.8423 21.1086 18.4727L18.4421 21.1392M18.4421 21.1392L21.8047 24.5017M25.1672 4.32642H31.8923M28.5298 0.963867V7.68897M18.4421 11.0515H18.459" stroke="#B4B4B4" stroke-width="1.68127" stroke-linecap="round" stroke-linejoin="round"/>
</svg>
