<svg width="1440" height="465" viewBox="0 0 1440 465" fill="none" xmlns="http://www.w3.org/2000/svg">
<path d="M1228.22 472.614C1227.59 477.23 1221.98 479.658 1218.1 480.826C1210.37 483.16 1202.39 482.507 1194.48 481.663C1182.19 480.344 1170.05 478.026 1157.86 476.002C1146.22 474.073 1133.93 471.461 1122.14 473.533C1113.37 475.08 1105.27 479.025 1096.82 481.669C1087.96 484.443 1078.67 485.82 1069.44 486.593C1028.57 490.012 987.312 481.954 947.326 474.459C944.633 473.955 945.242 469.898 947.817 470.122C947.758 469.509 947.821 468.853 948.044 468.167C948.248 467.561 948.527 466.98 948.841 466.413C948.235 465.532 948.228 464.327 949.438 463.645C958.358 458.606 968.486 459.786 978.136 461.764C990.242 464.243 1001.95 466.198 1014.35 466.614C1028.25 467.079 1042.12 466.255 1056.01 466.045C1068.23 465.851 1080.12 467.016 1091.73 462.219C1094.85 460.93 1097.66 459.465 1098.45 455.989C1098.81 454.35 1098.74 452.613 1098.83 450.948C1099.02 447.382 1100.15 446.383 1103.36 444.585C1110.55 440.56 1118.93 440.575 1126.78 442.413C1135.58 444.474 1143.73 448.441 1152.04 451.841C1163.47 456.518 1175.36 457.585 1187.57 458.307C1198.25 458.94 1209.42 459.423 1219.51 463.282C1223.36 464.755 1228.9 467.648 1228.22 472.614Z" fill="url(#paint0_linear_132_1882)"/>
<path d="M826.626 343.31C835.25 338.399 846.577 338.074 856.2 336.828C873.734 334.547 891.385 325.563 909.275 329.941C912.012 330.608 910.405 334.686 907.688 334.025C907.585 334.001 907.493 333.983 907.393 333.959C907.107 334.248 906.727 334.463 906.233 334.559C889.595 337.731 880.52 353.342 865.849 360.235C860.684 362.662 855.199 362.803 849.577 362.612C843.102 362.387 836.211 361.711 830.093 359.446C822.449 356.619 818.165 348.132 826.626 343.31Z" fill="url(#paint1_linear_132_1882)"/>
<path d="M144.769 495.793C72.8045 526.981 5.2696 572.384 -40.6715 635.85C-51.1415 650.316 -60.5646 665.945 -64.8032 683.281C-69.0339 700.621 -67.5433 719.978 -57.5158 734.738C-44.0723 754.522 -18.7168 762.234 5.01003 765.54C14.3133 766.836 24.0235 767.641 32.9062 764.581C41.7903 761.525 49.6359 753.658 49.8658 744.288C50.2483 728.44 31.6994 720.428 19.132 710.732C-9.56653 688.613 -11.3232 643.871 5.31455 611.704C21.9526 579.538 52.2495 556.995 81.5252 535.617C97.321 524.083 114.357 512.09 133.9 511.143C145.571 510.579 157.103 514.072 168.791 514.119C195.695 514.244 218.879 496.676 242.075 483.052C278.969 461.37 320.86 448.229 363.545 444.963C379.985 443.7 399.026 442.388 412.271 434.261C418.871 430.219 415.512 420.029 407.785 420.5C369.886 422.824 331.214 437.607 295.221 446.738C244.066 459.739 193.26 474.781 144.769 495.793Z" fill="url(#paint2_linear_132_1882)"/>
<path d="M221.082 380.885C220.064 378.356 217.181 377.129 214.645 378.155C204.523 382.225 201.136 389.276 198.424 394.935C195.949 400.101 193.99 404.181 187.44 406.816C180.89 409.451 176.638 407.857 171.27 405.841C165.379 403.638 158.05 400.887 147.925 404.957C137.803 409.028 134.424 416.079 131.705 421.738C129.23 426.904 127.269 430.984 120.719 433.622C114.169 436.256 109.919 434.66 104.548 432.647C98.6594 430.441 91.3281 427.692 81.2038 431.754C71.0808 435.825 67.7025 442.876 64.983 448.535C62.5081 453.701 60.5476 457.781 53.9972 460.416C51.4602 461.433 50.2298 464.311 51.2551 466.841C52.2727 469.369 55.156 470.597 57.6916 469.571C67.8145 465.5 71.1932 458.449 73.9126 452.79C76.3872 447.624 78.348 443.544 84.8981 440.909C91.4485 438.275 95.6976 439.869 101.069 441.884C106.958 444.087 114.289 446.836 124.413 442.774C134.536 438.703 137.915 431.652 140.634 425.993C143.109 420.827 145.07 416.75 151.62 414.112C158.17 411.478 162.418 413.074 167.789 415.087C173.68 417.293 181.01 420.042 191.134 415.971C201.256 411.901 204.644 404.847 207.355 399.191C209.83 394.025 211.787 389.936 218.34 387.31C220.87 386.292 222.1 383.417 221.082 380.885Z" fill="#FBC49D"/>
<path d="M101.122 338.084C107.779 337.008 113.989 333.271 117.991 327.218C121.669 321.663 122.954 315.016 121.625 308.498C120.288 301.98 116.493 296.371 110.928 292.704C105.362 289.039 98.6974 287.752 92.1644 289.09C85.6316 290.429 80.0057 294.219 76.3285 299.773C68.7403 311.243 71.9078 326.72 83.4015 334.293C88.8223 337.867 95.1535 339.047 101.122 338.084ZM94.3134 295.759C98.7801 295.038 103.292 296.002 107.095 298.502C111.108 301.148 113.846 305.188 114.81 309.898C115.773 314.595 114.844 319.391 112.19 323.398C106.713 331.668 95.5226 333.955 87.2341 328.495C78.9455 323.034 76.6623 311.873 82.1391 303.599C84.7932 299.596 88.8452 296.86 93.5649 295.896C93.8074 295.84 94.0603 295.799 94.3134 295.759Z" fill="#FFB0EB"/>
<path d="M320.772 333.301C316.692 333.96 312.854 331.195 312.196 327.129C311.538 323.059 314.312 319.229 318.389 318.569C322.466 317.912 326.307 320.674 326.965 324.744C327.623 328.811 324.849 332.643 320.772 333.301Z" fill="url(#paint3_linear_132_1882)"/>
<path d="M1165.09 221.508C1158.47 222.577 1152.24 218.09 1151.17 211.487C1150.1 204.884 1154.61 198.665 1161.23 197.596C1167.84 196.527 1174.08 201.014 1175.14 207.617C1176.21 214.22 1171.71 220.439 1165.09 221.508Z" fill="url(#paint4_linear_132_1882)"/>
<path d="M1294.69 361.884C1295.77 361.709 1296.79 361.229 1297.62 360.471C1299.02 359.201 1299.71 357.326 1299.46 355.457L1290.93 293.343C1290.63 291.229 1289.19 289.456 1287.17 288.738C1285.16 288.019 1282.91 288.479 1281.35 289.937L1229.77 337.732C1228.21 339.164 1227.58 341.338 1228.13 343.379C1228.66 345.421 1230.28 346.996 1232.33 347.49L1292.45 361.809C1293.19 361.981 1293.95 362.002 1294.69 361.884ZM1281.06 305.804L1286.96 348.736L1245.41 338.84L1281.06 305.804Z" fill="#FFB0EB"/>
<path d="M1252.86 465.779C1239.26 448.513 1322.16 492.662 1317.97 514.615C1313.77 536.567 1271.39 538.507 1281.96 519.724C1290.92 503.841 1274.57 493.347 1252.86 465.779Z" fill="#FBC49D"/>
<path d="M378.338 389.092C378.418 389.077 378.503 389.062 378.591 389.051C388.507 387.312 395.162 377.853 393.427 367.961C392.588 363.169 389.924 358.992 385.936 356.199C381.947 353.405 377.11 352.339 372.297 353.173C367.492 354.014 363.306 356.673 360.503 360.654C357.7 364.634 356.623 369.469 357.462 374.261C358.301 379.055 360.965 383.229 364.953 386.026C368.877 388.765 373.619 389.853 378.338 389.092ZM373.28 357.692C376.804 357.122 380.344 357.936 383.269 359.979C386.251 362.064 388.232 365.183 388.859 368.754C390.156 376.136 385.188 383.194 377.789 384.487C374.199 385.12 370.591 384.314 367.617 382.229C364.635 380.143 362.654 377.024 362.028 373.453C361.402 369.879 362.206 366.269 364.297 363.303C366.388 360.334 369.516 358.349 373.098 357.72C373.152 357.712 373.214 357.702 373.28 357.692Z" fill="#75C4FD"/>
<path d="M945.39 326.278C949.426 325.464 953.674 325.693 957.756 325.956C962.879 326.286 967.891 326.431 973.036 326.394C984.811 326.314 996.583 326.573 1008.34 327.151C1020.62 327.75 1032.98 328.498 1045.12 330.421C1055.99 332.137 1066.69 334.755 1077.37 337.385C1102.85 343.659 1128.83 347.469 1154.27 353.978C1175.68 359.463 1196.74 366.16 1217.57 373.52C1225.52 375.951 1233.3 379.394 1236.36 380.81C1237.42 381.296 1238.07 382.453 1237.77 383.586C1237.71 383.822 1237.61 384.025 1237.47 384.168C1233.23 388.212 1225.94 385.61 1221.25 383.873C1218.19 382.734 1208.99 380.6 1207.23 380.579C1204 380.541 1201.06 380.554 1202.08 384.954C1203.33 390.361 1211.42 395.01 1216.08 397.315C1223.82 401.147 1233.32 402.899 1240.59 407.779C1248.26 410.103 1256.63 412.829 1262.34 415.224C1283.11 423.937 1302.46 435.378 1320.68 448.556C1329.29 454.778 1337.72 461.398 1344.99 469.182C1350.67 475.266 1356.83 482.59 1359.17 490.756C1360.64 495.9 1358.34 500.134 1352.57 498.133C1343.59 495.037 1340.11 486.939 1335.53 479.456C1325.08 462.348 1307.63 449.757 1290.08 440.686C1281.29 436.149 1272.11 432.381 1262.75 429.191C1252.7 425.763 1242.21 422.326 1231.56 421.652C1220.28 420.933 1209.06 422.767 1197.8 423.192C1187.42 423.584 1177.48 422.034 1167.6 418.83C1157.7 415.614 1148.26 411.197 1138.69 407.12C1131.76 404.168 1123.82 402.092 1117.6 397.724C1112.24 393.957 1111.84 388.715 1118.08 385.61C1128.27 380.536 1138.28 385.067 1148.28 388.099C1148.33 388.116 1148.39 388.128 1148.44 388.146C1156.79 390.667 1165.65 390.999 1174.22 389.372C1176.36 388.97 1178.08 388.659 1178.9 388.405C1182.38 387.311 1186.32 383.849 1184.86 379.812C1183.25 375.364 1177.36 372.6 1173.41 370.762C1166.96 367.757 1160.06 365.633 1153.14 364.009C1151.35 363.586 1149.51 363.154 1147.65 362.774C1143.1 362.296 1138.56 361.937 1134.03 361.705C1122.55 361.098 1111.05 361.71 1099.65 359.948C1089.59 358.394 1079.78 355.599 1070.07 352.611C1059.36 349.316 1048.8 346.172 1037.61 344.962C1026.31 343.744 1014.72 343.843 1003.43 345.132C992.851 346.339 982.416 348.727 971.745 349.065C963.611 349.328 955.863 347.812 948.095 345.578C943.61 344.287 936.413 342.358 934.884 337.264C933.115 331.351 940.691 327.223 945.39 326.278Z" fill="url(#paint5_linear_132_1882)"/>
<defs>
<linearGradient id="paint0_linear_132_1882" x1="794.958" y1="456.802" x2="1830.3" y2="485.01" gradientUnits="userSpaceOnUse">
<stop stop-color="#FFE466"/>
<stop offset="1" stop-color="#FFAFEA"/>
</linearGradient>
<linearGradient id="paint1_linear_132_1882" x1="774.874" y1="356.517" x2="1116.25" y2="320.008" gradientUnits="userSpaceOnUse">
<stop stop-color="#FFE466"/>
<stop offset="1" stop-color="#FFAFEA"/>
</linearGradient>
<linearGradient id="paint2_linear_132_1882" x1="-78.4926" y1="655.449" x2="440.827" y2="543.94" gradientUnits="userSpaceOnUse">
<stop stop-color="#75C3FC"/>
<stop offset="0.0929" stop-color="#81C2F6"/>
<stop offset="1" stop-color="#F0B8BD"/>
</linearGradient>
<linearGradient id="paint3_linear_132_1882" x1="326.965" y1="324.744" x2="312.199" y2="327.134" gradientUnits="userSpaceOnUse">
<stop stop-color="#75C3FC"/>
<stop offset="1" stop-color="#75C3FC"/>
</linearGradient>
<linearGradient id="paint4_linear_132_1882" x1="1175.2" y1="208.04" x2="1151.11" y2="211.06" gradientUnits="userSpaceOnUse">
<stop stop-color="#75C3FC"/>
<stop offset="1" stop-color="#75C3FC"/>
</linearGradient>
<linearGradient id="paint5_linear_132_1882" x1="908.823" y1="367.274" x2="1563.86" y2="474.484" gradientUnits="userSpaceOnUse">
<stop stop-color="#FFE466"/>
<stop offset="1" stop-color="#FFAFEA"/>
</linearGradient>
</defs>
</svg>
