<svg width="1440" height="739" viewBox="0 0 1440 739" fill="none" xmlns="http://www.w3.org/2000/svg">
<path d="M1234.95 582.689C1233.93 587.237 1228.14 589.188 1224.17 590.029C1216.28 591.709 1208.38 590.393 1200.57 588.893C1188.43 586.554 1176.53 583.231 1164.55 580.197C1153.11 577.304 1141.08 573.676 1129.15 574.757C1120.28 575.567 1111.89 578.823 1103.25 580.753C1094.18 582.778 1084.81 583.376 1075.55 583.376C1034.54 583.374 994.097 571.903 954.875 561.099C952.234 560.372 953.179 556.38 955.726 556.818C955.719 556.202 955.836 555.553 956.116 554.888C956.37 554.302 956.696 553.746 957.056 553.207C956.526 552.279 956.619 551.077 957.882 550.499C967.191 546.221 977.185 548.242 986.637 551.018C998.494 554.498 1010 557.423 1022.32 558.872C1036.13 560.494 1050.02 560.83 1063.88 561.779C1076.08 562.606 1087.83 564.758 1099.8 560.946C1103.01 559.922 1105.94 558.696 1107.01 555.298C1107.51 553.695 1107.59 551.959 1107.81 550.307C1108.3 546.77 1109.51 545.867 1112.85 544.344C1120.36 540.932 1128.71 541.646 1136.38 544.133C1144.97 546.92 1152.77 551.554 1160.77 555.635C1171.77 561.249 1183.52 563.304 1195.63 565.042C1206.22 566.563 1217.31 567.977 1227.05 572.663C1230.76 574.452 1236.04 577.797 1234.95 582.689Z" fill="url(#paint0_linear_11_11)"/>
<path d="M845.534 420.34C854.538 416.164 865.853 416.786 875.546 416.347C893.209 415.536 911.548 408.055 929.011 413.91C931.682 414.803 929.741 418.733 927.089 417.848C926.988 417.815 926.898 417.79 926.8 417.758C926.491 418.022 926.094 418.204 925.594 418.259C908.75 420.032 898.404 434.831 883.209 440.477C877.859 442.464 872.382 442.148 866.795 441.488C860.361 440.724 853.551 439.476 847.643 436.708C840.262 433.253 836.701 424.439 845.534 420.34Z" fill="url(#paint1_linear_11_11)"/>
<path d="M153.335 515.417C79.0198 540.494 7.9332 580.106 -43.1415 639.519C-54.7817 653.061 -65.4755 667.849 -71.1453 684.772C-76.8075 701.698 -76.9367 721.112 -68.1752 736.657C-56.4288 757.494 -31.8049 767.294 -8.43653 772.567C0.726229 774.635 10.3354 776.247 19.4425 773.938C28.5505 771.634 37.0249 764.448 38.0356 755.13C39.7387 739.37 21.9226 729.839 10.2078 719.127C-16.5458 694.692 -14.5644 649.959 4.69828 619.293C23.9613 588.627 56.033 568.689 86.9898 549.827C103.693 539.651 121.669 529.121 141.223 529.807C152.9 530.219 164.101 534.662 175.745 535.683C202.544 538.051 227.113 522.479 251.364 510.836C289.938 492.307 332.779 482.707 375.588 483.012C392.077 483.125 411.16 483.406 425.037 476.412C431.952 472.934 429.453 462.5 421.715 462.325C383.754 461.479 343.983 472.986 307.354 479.082C255.293 487.771 203.409 498.523 153.335 515.417Z" fill="url(#paint2_linear_11_11)"/>
<path d="M238.967 407.274C238.163 404.669 235.393 403.206 232.78 404.017C222.354 407.229 218.391 413.973 215.216 419.386C212.319 424.327 210.026 428.23 203.279 430.309C196.532 432.388 192.429 430.445 187.247 427.989C181.561 425.302 174.486 421.949 164.057 425.161C153.63 428.373 149.676 435.118 146.494 440.53C143.597 445.472 141.302 449.374 134.555 451.456C127.808 453.535 123.706 451.59 118.522 449.136C112.838 446.447 105.761 443.096 95.3332 446.299C84.906 449.511 80.9513 456.256 77.7693 461.669C74.8722 466.61 72.5782 470.513 65.8308 472.592C63.2178 473.394 61.7516 476.159 62.5623 478.765C63.3655 481.37 66.1363 482.834 68.7487 482.023C79.1759 478.811 83.1309 472.066 86.3129 466.654C89.2097 461.712 91.504 457.81 98.251 455.731C104.998 453.652 109.1 455.594 114.284 458.051C119.969 460.737 127.045 464.088 137.473 460.885C147.9 457.673 151.855 450.928 155.037 445.516C157.934 440.574 160.228 436.674 166.975 434.592C173.722 432.513 177.823 434.458 183.007 436.912C188.693 439.602 195.768 442.953 206.197 439.741C216.623 436.528 220.587 429.782 223.761 424.371C226.659 419.43 228.95 415.519 235.699 413.448C238.304 412.645 239.77 409.882 238.967 407.274Z" fill="#FBC49D"/>
<path d="M1214.57 766.42C1215.41 766.355 1216.27 766.233 1217.12 766.056C1222.29 764.97 1226.73 761.945 1229.63 757.533C1232.52 753.12 1233.52 747.844 1232.43 742.687C1230.19 732.034 1219.68 725.188 1209.01 727.425C1198.33 729.664 1191.47 740.142 1193.7 750.794C1195.76 760.587 1204.82 767.169 1214.57 766.42ZM1226.49 743.927C1227.24 747.506 1226.55 751.159 1224.55 754.22C1222.55 757.281 1219.47 759.378 1215.88 760.125C1208.47 761.679 1201.19 756.926 1199.64 749.545C1198.9 745.966 1199.59 742.316 1201.58 739.252C1203.58 736.191 1206.67 734.095 1210.25 733.347C1217.66 731.794 1224.94 736.538 1226.49 743.927Z" fill="#86E29B"/>
<path d="M110.928 687.073C111.775 687.008 112.633 686.886 113.484 686.709C118.654 685.623 123.096 682.598 125.993 678.186C128.885 673.773 129.883 668.497 128.795 663.34C126.556 652.688 116.046 645.841 105.375 648.078C94.6953 650.317 87.8312 660.795 90.0642 671.447C92.1265 681.24 101.178 687.822 110.928 687.073ZM122.851 664.581C123.6 668.159 122.91 671.813 120.911 674.873C118.915 677.934 115.832 680.031 112.241 680.778C104.836 682.332 97.5559 677.579 96.0066 670.198C95.2597 666.619 95.9497 662.969 97.9463 659.905C99.9453 656.845 103.028 654.748 106.616 654C114.024 652.447 121.303 657.191 122.851 664.581Z" fill="#86E29B"/>
<path d="M122.995 354.617C129.718 354.099 136.218 350.894 140.712 345.195C144.839 339.967 146.675 333.45 145.894 326.844C145.105 320.237 141.791 314.331 136.551 310.213C131.311 306.096 124.777 304.258 118.155 305.047C111.533 305.835 105.611 309.143 101.483 314.371C92.9645 325.168 94.83 340.855 105.652 349.361C110.756 353.375 116.966 355.079 122.995 354.617ZM119.74 311.871C124.251 311.526 128.667 312.863 132.248 315.671C136.027 318.643 138.418 322.897 138.986 327.67C139.553 332.432 138.228 337.134 135.249 340.905C129.101 348.69 117.759 350.035 109.955 343.902C102.151 337.77 100.806 326.457 106.954 318.669C109.933 314.901 114.199 312.513 118.983 311.945C119.229 311.91 119.484 311.891 119.74 311.871Z" fill="#FFB0EB"/>
<path d="M342.278 368.171C338.157 368.488 334.563 365.413 334.247 361.305C333.931 357.195 337.014 353.61 341.132 353.292C345.25 352.978 348.846 356.051 349.162 360.161C349.479 364.269 346.395 367.857 342.278 368.171Z" fill="url(#paint3_linear_11_11)"/>
<path d="M1137.77 734.599C1133.65 734.914 1130.05 731.841 1129.74 727.731C1129.42 723.623 1132.5 720.035 1136.62 719.721C1140.74 719.403 1144.34 722.479 1144.65 726.587C1144.97 730.697 1141.89 734.282 1137.77 734.599Z" fill="url(#paint4_linear_11_11)"/>
<path d="M167.052 695.906C162.934 696.221 159.34 693.148 159.024 689.038C158.707 684.93 161.789 681.342 165.909 681.028C170.027 680.71 173.623 683.786 173.94 687.894C174.253 692.004 171.172 695.589 167.052 695.906Z" fill="url(#paint5_linear_11_11)"/>
<path d="M1192.98 327.193C1186.29 327.706 1180.46 322.715 1179.95 316.046C1179.43 309.377 1184.44 303.555 1191.12 303.042C1197.81 302.529 1203.64 307.519 1204.15 314.188C1204.67 320.858 1199.66 326.68 1192.98 327.193Z" fill="url(#paint6_linear_11_11)"/>
<path d="M1310.42 477.889C1311.51 477.805 1312.57 477.412 1313.46 476.726C1314.96 475.577 1315.8 473.766 1315.71 471.882L1312.39 409.273C1312.27 407.143 1310.98 405.255 1309.03 404.371C1307.08 403.487 1304.81 403.758 1303.12 405.08L1247.74 448.407C1246.07 449.704 1245.26 451.817 1245.63 453.896C1245.99 455.976 1247.48 457.68 1249.48 458.344L1308.19 477.627C1308.91 477.86 1309.68 477.946 1310.42 477.889ZM1301.51 420.868L1303.81 464.142L1263.23 450.815L1301.51 420.868Z" fill="#FFB0EB"/>
<path d="M1260.07 577.933C1247.96 559.594 1326.88 610.503 1320.87 632.029C1314.86 653.555 1272.46 651.953 1284.57 634.118C1294.82 619.037 1279.4 607.216 1260.07 577.933Z" fill="#FBC49D"/>
<path d="M394.99 428.57C395.071 428.562 395.157 428.554 395.246 428.55C405.272 427.645 412.693 418.774 411.789 408.771C411.352 403.926 409.046 399.542 405.305 396.425C401.564 393.308 396.832 391.843 391.966 392.273C387.108 392.71 382.714 395.011 379.589 398.743C376.464 402.476 374.987 407.204 375.424 412.049C375.86 416.897 378.166 421.279 381.907 424.398C385.589 427.455 390.224 428.935 394.99 428.57ZM392.569 396.858C396.128 396.584 399.588 397.69 402.333 399.97C405.13 402.297 406.844 405.57 407.171 409.181C407.848 416.645 402.308 423.264 394.827 423.935C391.197 424.267 387.668 423.162 384.879 420.837C382.082 418.509 380.368 415.236 380.041 411.625C379.715 408.012 380.818 404.481 383.149 401.7C385.48 398.916 388.764 397.198 392.385 396.871C392.439 396.867 392.503 396.862 392.569 396.858Z" fill="#75C4FD"/>
<path d="M965.306 413.273C969.395 412.798 973.609 413.38 977.656 413.983C982.733 414.739 987.716 415.302 992.846 415.694C1004.59 416.596 1016.3 417.836 1027.96 419.392C1040.15 421.014 1052.4 422.79 1064.35 425.719C1075.04 428.336 1085.47 431.838 1095.89 435.348C1120.77 443.727 1146.34 449.69 1171.14 458.298C1192.02 465.55 1212.45 473.98 1232.59 483.051C1240.32 486.138 1247.79 490.218 1250.72 491.884C1251.73 492.456 1252.28 493.663 1251.89 494.768C1251.81 494.998 1251.69 495.192 1251.54 495.323C1246.98 498.999 1239.93 495.798 1235.4 493.676C1232.45 492.285 1223.46 489.393 1221.7 489.224C1218.49 488.917 1215.56 488.684 1216.21 493.154C1217.01 498.647 1224.68 503.954 1229.13 506.64C1236.53 511.105 1245.85 513.642 1252.67 519.111C1260.12 522.067 1268.24 525.482 1273.73 528.345C1293.7 538.76 1312.03 551.775 1329.09 566.427C1337.15 573.346 1345 580.646 1351.6 589.009C1356.74 595.545 1362.27 603.357 1363.93 611.69C1364.96 616.939 1362.31 620.966 1356.73 618.491C1348.04 614.657 1345.25 606.297 1341.31 598.458C1332.32 580.537 1315.98 566.535 1299.25 556.032C1290.87 550.777 1282.04 546.257 1272.98 542.297C1263.25 538.043 1253.08 533.743 1242.52 532.183C1231.34 530.525 1220.01 531.417 1208.76 530.902C1198.38 530.427 1188.6 528.053 1179.02 524.036C1169.42 520.006 1160.38 514.817 1151.19 509.956C1144.53 506.436 1136.79 503.705 1130.95 498.833C1125.93 494.633 1125.97 489.376 1132.44 486.801C1143.02 482.595 1152.62 487.945 1162.33 491.801C1162.38 491.822 1162.44 491.839 1162.49 491.861C1170.6 495.069 1179.4 496.14 1188.08 495.233C1190.24 495.011 1191.99 494.845 1192.82 494.66C1196.38 493.86 1200.59 490.738 1199.48 486.594C1198.24 482.027 1192.6 478.781 1188.82 476.621C1182.65 473.088 1175.94 470.395 1169.18 468.2C1167.43 467.629 1165.64 467.045 1163.82 466.512C1159.32 465.655 1154.83 464.919 1150.34 464.311C1138.94 462.748 1127.43 462.398 1116.22 459.692C1106.32 457.304 1096.79 453.701 1087.35 449.913C1076.95 445.736 1066.7 441.723 1055.65 439.583C1044.48 437.427 1032.93 436.559 1021.57 436.902C1010.93 437.222 1000.33 438.732 989.668 438.178C981.54 437.762 973.946 435.605 966.391 432.731C962.03 431.07 955.019 428.548 953.92 423.344C952.65 417.304 960.545 413.822 965.306 413.273Z" fill="url(#paint7_linear_11_11)"/>
<path d="M481.572 728.284C481.333 728.3 481.126 728.122 481.109 727.886C481.09 727.647 481.268 727.44 481.507 727.423C481.743 727.404 481.95 727.582 481.97 727.818C481.989 728.057 481.811 728.265 481.572 728.284Z" fill="#606060"/>
<path d="M562.41 615.388C555.324 615.932 549.138 610.642 548.594 603.573C548.05 596.503 553.354 590.331 560.44 589.787C567.527 589.243 573.712 594.533 574.256 601.602C574.801 608.672 569.497 614.844 562.41 615.388Z" fill="#606060"/>
<path d="M1358.03 820.477C1380.66 802.47 1412.32 767.205 1409.77 734.063C1411.09 710.164 1384.4 685.074 1351.32 688.158C1333.07 689.863 1315.6 705.376 1326.08 715.941C1329.05 718.934 1333.61 720.844 1337.74 723.012C1374.8 742.537 1371.13 790.261 1331.16 808.495C1315.01 815.863 1295.8 818.466 1278.3 823.903C1231.86 838.342 1221.67 887.291 1174.04 899.4C1153.04 904.738 1130.45 905.479 1109.21 910.233C1069.11 919.215 1036.52 941.834 996.421 950.834C976.919 955.213 949.694 959.826 923.649 963.836C915.942 965.02 917.504 973.209 925.308 972.548C925.467 972.534 925.619 972.522 925.77 972.502C944.84 970.775 963.929 968.757 982.741 965.734C1032.51 957.727 1082.18 945.837 1129.87 932.54C1225.45 905.92 1288.32 875.968 1358.03 820.477Z" fill="url(#paint8_linear_11_11)"/>
<defs>
<linearGradient id="paint0_linear_11_11" x1="804.51" y1="530.795" x2="1833.89" y2="645.262" gradientUnits="userSpaceOnUse">
<stop stop-color="#FFE466"/>
<stop offset="1" stop-color="#FFAFEA"/>
</linearGradient>
<linearGradient id="paint1_linear_11_11" x1="792.861" y1="429.183" x2="1136.09" y2="421.275" gradientUnits="userSpaceOnUse">
<stop stop-color="#FFE466"/>
<stop offset="1" stop-color="#FFAFEA"/>
</linearGradient>
<linearGradient id="paint2_linear_11_11" x1="-82.4655" y1="655.895" x2="444.345" y2="588.091" gradientUnits="userSpaceOnUse">
<stop stop-color="#75C3FC"/>
<stop offset="0.0929" stop-color="#81C2F6"/>
<stop offset="1" stop-color="#F0B8BD"/>
</linearGradient>
<linearGradient id="paint3_linear_11_11" x1="349.162" y1="360.161" x2="334.249" y2="361.311" gradientUnits="userSpaceOnUse">
<stop stop-color="#75C3FC"/>
<stop offset="1" stop-color="#75C3FC"/>
</linearGradient>
<linearGradient id="paint4_linear_11_11" x1="1144.65" y1="726.583" x2="1129.74" y2="727.73" gradientUnits="userSpaceOnUse">
<stop stop-color="#75C3FC"/>
<stop offset="1" stop-color="#75C3FC"/>
</linearGradient>
<linearGradient id="paint5_linear_11_11" x1="173.937" y1="687.89" x2="159.022" y2="689.037" gradientUnits="userSpaceOnUse">
<stop stop-color="#75C3FC"/>
<stop offset="1" stop-color="#75C3FC"/>
</linearGradient>
<linearGradient id="paint6_linear_11_11" x1="1204.18" y1="314.615" x2="1179.92" y2="315.615" gradientUnits="userSpaceOnUse">
<stop stop-color="#75C3FC"/>
<stop offset="1" stop-color="#75C3FC"/>
</linearGradient>
<linearGradient id="paint7_linear_11_11" x1="925.447" y1="451.075" x2="1569.26" y2="612.549" gradientUnits="userSpaceOnUse">
<stop stop-color="#FFE466"/>
<stop offset="1" stop-color="#FFAFEA"/>
</linearGradient>
<linearGradient id="paint8_linear_11_11" x1="1415.61" y1="808.485" x2="909.462" y2="846.434" gradientUnits="userSpaceOnUse">
<stop stop-color="#75C3FC"/>
<stop offset="0.0929" stop-color="#81C2F6"/>
<stop offset="1" stop-color="#F0B8BD"/>
</linearGradient>
</defs>
</svg>
