<svg width="633" height="451" viewBox="0 0 633 451" fill="none" xmlns="http://www.w3.org/2000/svg">
<path d="M394.762 377.61C394.994 377.558 395.217 377.463 395.421 377.325L434.517 350.995C435.113 350.596 435.438 349.898 435.366 349.186C435.294 348.473 434.832 347.858 434.17 347.587L395.873 331.904C395.28 331.661 394.602 331.725 394.065 332.077C393.529 332.43 393.199 333.024 393.186 333.667L392.386 375.678C392.372 376.404 392.765 377.075 393.401 377.422C393.825 377.65 394.309 377.712 394.762 377.61ZM429.324 349.804L396.353 372.009L397.026 336.58L429.324 349.804Z" fill="url(#paint0_linear_132_2115)"/>
<path d="M413.451 348.53C413.078 347.403 411.861 346.794 410.732 347.169C406.226 348.667 404.569 351.638 403.237 354.026C402.023 356.203 401.061 357.924 398.147 358.893C395.232 359.86 393.431 359.056 391.155 358.039C388.658 356.923 385.548 355.533 381.041 357.031C376.534 358.529 374.876 361.5 373.545 363.888C372.331 366.065 371.374 367.787 368.455 368.755C365.54 369.722 363.74 368.918 361.462 367.901C358.966 366.785 355.856 365.395 351.352 366.893C346.849 368.39 345.189 371.362 343.857 373.75C342.644 375.927 341.685 377.648 338.767 378.616C337.638 378.991 337.027 380.205 337.402 381.332C337.776 382.457 338.993 383.067 340.121 382.691C344.628 381.195 346.285 378.223 347.616 375.835C348.83 373.658 349.788 371.937 352.706 370.969C355.622 370.001 357.423 370.805 359.699 371.822C362.196 372.938 365.305 374.327 369.809 372.83C374.316 371.332 375.974 368.362 377.305 365.974C378.519 363.796 379.476 362.075 382.395 361.108C385.309 360.139 387.11 360.943 389.387 361.961C391.884 363.076 394.994 364.466 399.501 362.968C404.007 361.47 405.665 358.5 406.996 356.112C408.21 353.934 409.171 352.213 412.086 351.244C413.215 350.873 413.826 349.655 413.451 348.53Z" fill="url(#paint1_linear_132_2115)"/>
<path d="M528.263 150.574C528.129 152.371 526.021 153.442 524.55 153.986C521.622 155.071 518.526 155.009 515.454 154.872C510.681 154.655 505.938 154.049 501.186 153.558C496.644 153.09 491.839 152.375 487.337 153.455C483.988 154.262 480.959 155.977 477.758 157.2C474.403 158.482 470.852 159.235 467.305 159.753C451.612 162.046 435.496 159.918 419.884 157.976C418.832 157.846 418.971 156.265 419.97 156.29C419.933 156.055 419.941 155.8 420.011 155.53C420.075 155.291 420.169 155.06 420.277 154.833C420.022 154.508 419.99 154.043 420.442 153.751C423.765 151.593 427.702 151.807 431.474 152.341C436.206 153.01 440.771 153.486 445.569 153.351C450.944 153.199 456.277 152.551 461.632 152.139C466.347 151.773 470.963 151.94 475.331 149.811C476.503 149.24 477.554 148.607 477.774 147.246C477.877 146.604 477.809 145.935 477.803 145.291C477.793 143.909 478.205 143.496 479.399 142.726C482.08 141.001 485.316 140.807 488.389 141.33C491.833 141.916 495.075 143.253 498.364 144.368C502.887 145.902 507.501 146.03 512.232 146.018C516.367 146.008 520.692 145.929 524.678 147.178C526.198 147.656 528.408 148.64 528.263 150.574Z" fill="url(#paint2_linear_132_2115)"/>
<path d="M370.172 110.215C373.384 108.113 377.748 107.718 381.433 107.007C388.147 105.709 394.746 101.82 401.756 103.084C402.828 103.277 402.305 104.89 401.24 104.699C401.2 104.692 401.164 104.687 401.125 104.681C401.021 104.799 400.88 104.891 400.691 104.94C394.345 106.561 391.214 112.804 385.715 115.815C383.779 116.875 381.665 117.06 379.49 117.12C376.986 117.188 374.31 117.091 371.894 116.362C368.877 115.452 367.021 112.278 370.172 110.215Z" fill="url(#paint3_linear_132_2115)"/>
<path d="M171.632 205.275C158.587 213.941 145.619 223.76 138.076 237.47C136.598 240.154 135.316 243.18 135.852 246.192C137.108 253.239 146.561 254.909 153.633 253.72C157.616 253.05 162.488 250.726 162.023 246.722C161.626 243.273 157.435 241.608 155.973 238.459C154.231 234.705 156.877 230.434 159.629 227.336C180.136 204.238 211.801 194.979 241.991 188.344C248.157 186.989 255.848 183.876 255.572 177.584C255.389 173.434 251.298 170.327 247.178 169.742C243.059 169.157 238.931 170.451 234.949 171.654C224.44 174.824 213.539 177.472 202.597 176.634C193.161 175.911 185.267 174.697 182.967 184.811C180.654 194.966 181.758 198.55 171.632 205.275Z" fill="url(#paint4_linear_132_2115)"/>
<path d="M110.614 185.326C83.5785 199.081 58.5918 218.22 42.3701 243.818C38.6732 249.652 35.4081 255.911 34.1848 262.705C32.9646 269.501 34.0009 276.939 38.2228 282.399C43.8828 289.717 53.8534 292.091 63.0904 292.802C66.7122 293.081 70.4794 293.161 73.8352 291.767C77.1916 290.376 80.0326 287.152 79.8983 283.528C79.6686 277.401 72.3182 274.749 67.2364 271.305C55.6325 263.448 53.8892 246.215 59.5453 233.4C65.2015 220.585 76.3591 211.159 87.1502 202.208C92.9726 197.379 99.2626 192.343 106.783 191.511C111.275 191.016 115.809 192.09 120.322 191.829C130.709 191.237 139.24 183.902 147.869 178.089C161.593 168.839 177.45 162.768 193.848 160.49C200.164 159.611 207.482 158.652 212.401 155.198C214.853 153.48 213.313 149.626 210.342 149.992C195.769 151.792 181.194 158.421 167.518 162.803C148.083 169.041 128.83 176.059 110.614 185.326Z" fill="url(#paint5_linear_132_2115)"/>
<path d="M137.334 139.143C136.88 138.191 135.739 137.786 134.784 138.242C130.974 140.055 129.835 142.858 128.923 145.108C128.09 147.161 127.431 148.783 124.966 149.956C122.5 151.13 120.821 150.615 118.701 149.965C116.375 149.255 113.48 148.367 109.669 150.18C105.859 151.992 104.723 154.795 103.808 157.045C102.976 159.098 102.316 160.72 99.8502 161.895C97.3847 163.068 95.7065 162.553 93.5854 161.904C91.2598 161.192 88.3646 160.305 84.5534 162.115C80.743 163.928 79.6069 166.731 78.6919 168.98C77.8596 171.034 77.2001 172.656 74.7344 173.829C73.7793 174.282 73.373 175.423 73.8289 176.375C74.2819 177.327 75.4241 177.732 76.3784 177.276C80.1888 175.463 81.325 172.66 82.24 170.41C83.0721 168.357 83.7318 166.735 86.1974 165.562C88.663 164.388 90.3411 164.903 92.4622 165.553C94.7878 166.263 97.6831 167.15 101.494 165.34C105.305 163.528 106.441 160.725 107.356 158.475C108.188 156.422 108.848 154.801 111.313 153.626C113.779 152.453 115.456 152.968 117.578 153.618C119.904 154.329 122.799 155.216 126.61 153.403C130.42 151.59 131.559 148.786 132.471 146.538C133.304 144.484 133.962 142.859 136.428 141.689C137.38 141.236 137.787 140.096 137.334 139.143Z" fill="#FBC49D"/>
<path d="M530.738 222.039C531.059 221.967 531.38 221.872 531.696 221.757C533.613 221.052 535.144 219.645 536.006 217.795C536.866 215.944 536.953 213.868 536.248 211.956C534.796 208.003 530.391 205.971 526.433 207.424C522.471 208.878 520.431 213.273 521.881 217.225C523.217 220.858 527.049 222.871 530.738 222.039ZM534.043 212.763C534.53 214.091 534.47 215.528 533.876 216.811C533.283 218.094 532.221 219.069 530.889 219.556C528.142 220.565 525.09 219.153 524.085 216.414C523.599 215.086 523.659 213.651 524.251 212.366C524.845 211.083 525.907 210.108 527.239 209.621C529.987 208.612 533.037 210.021 534.043 212.763Z" fill="#86E29B"/>
<path d="M90.0115 125.475C92.5552 124.901 94.8631 123.311 96.264 120.878C97.5511 118.646 97.8891 116.049 97.2208 113.564C96.5495 111.079 94.9512 109.004 92.7157 107.721C90.4804 106.438 87.8771 106.1 85.3873 106.773C82.8976 107.445 80.8163 109.042 79.5292 111.274C76.8733 115.883 78.4644 121.783 83.0812 124.434C85.2586 125.684 87.7305 125.989 90.0115 125.475ZM86.3756 109.296C88.0825 108.911 89.8468 109.176 91.3744 110.051C92.9865 110.977 94.1395 112.471 94.6237 114.267C95.1071 116.058 94.8628 117.931 93.9338 119.541C92.0167 122.865 87.7517 124.014 84.4224 122.104C81.0931 120.193 79.9461 115.938 81.8631 112.613C82.7922 111.004 84.2912 109.852 86.0899 109.367C86.1822 109.34 86.2788 109.318 86.3756 109.296Z" fill="#FFB0EB"/>
<path d="M60.762 313.491C59.2037 313.841 57.656 312.865 57.3053 311.311C56.9546 309.756 57.9337 308.21 59.4921 307.858C61.0505 307.508 62.5981 308.484 62.9488 310.038C63.2994 311.593 62.3204 313.139 60.762 313.491Z" fill="url(#paint6_linear_132_2115)"/>
<path d="M513.159 249.249C511.6 249.599 510.053 248.624 509.702 247.069C509.351 245.514 510.331 243.968 511.889 243.618C513.447 243.266 514.995 244.242 515.346 245.796C515.696 247.352 514.717 248.897 513.159 249.249Z" fill="url(#paint7_linear_132_2115)"/>
<path d="M447.779 331.591C446.221 331.942 444.673 330.966 444.322 329.411C443.971 327.857 444.951 326.311 446.509 325.959C448.068 325.608 449.615 326.584 449.966 328.139C450.317 329.693 449.337 331.239 447.779 331.591Z" fill="url(#paint8_linear_132_2115)"/>
<path d="M163.154 367.282C161.595 367.633 160.048 366.658 159.697 365.102C159.346 363.547 160.325 362.002 161.883 361.651C163.443 361.299 164.99 362.275 165.34 363.83C165.691 365.385 164.712 366.93 163.154 367.282Z" fill="url(#paint9_linear_132_2115)"/>
<path d="M174.68 118.398C173.121 118.75 171.573 117.774 171.223 116.219C170.872 114.663 171.851 113.119 173.409 112.767C174.967 112.416 176.515 113.391 176.866 114.947C177.217 116.501 176.238 118.047 174.68 118.398Z" fill="url(#paint10_linear_132_2115)"/>
<path d="M499.571 214.155C498.013 214.506 496.466 213.531 496.115 211.975C495.764 210.421 496.742 208.875 498.301 208.524C499.859 208.172 501.408 209.148 501.758 210.703C502.108 212.258 501.13 213.803 499.571 214.155Z" fill="url(#paint11_linear_132_2115)"/>
<path d="M514.002 332.346C512.444 332.698 510.897 331.722 510.546 330.167C510.196 328.612 511.174 327.067 512.733 326.715C514.291 326.364 515.839 327.339 516.19 328.895C516.54 330.449 515.561 331.995 514.002 332.346Z" fill="url(#paint12_linear_132_2115)"/>
<path d="M497.916 55.1274C495.386 55.6977 492.874 54.1139 492.305 51.59C491.735 49.066 493.325 46.5576 495.855 45.9873C498.383 45.417 500.896 47.0008 501.465 49.5247C502.034 52.0487 500.445 54.5571 497.916 55.1274Z" fill="url(#paint13_linear_132_2115)"/>
<path d="M551.282 106.239C551.696 106.146 552.077 105.937 552.381 105.624C552.891 105.1 553.112 104.36 552.969 103.644L548.197 79.8657C548.034 79.0567 547.434 78.4066 546.638 78.1771C545.844 77.9476 544.989 78.1786 544.419 78.7789L525.647 98.4608C525.081 99.0507 524.89 99.9049 525.148 100.68C525.402 101.456 526.066 102.025 526.87 102.167L550.415 106.264C550.704 106.312 551.001 106.303 551.282 106.239ZM544.685 84.9121L547.985 101.347L531.711 98.5161L544.685 84.9121Z" fill="#FFB0EB"/>
<path d="M100.673 383.577C100.921 383.521 101.148 383.387 101.313 383.189L116.96 364.614C117.242 364.278 117.313 363.815 117.146 363.413C116.978 363.01 116.598 362.731 116.165 362.693L89.0528 360.344C88.6224 360.308 88.2045 360.511 87.9683 360.871C87.7321 361.232 87.7129 361.695 87.9218 362.073L99.386 382.993C99.5704 383.332 99.9136 383.558 100.3 383.594C100.427 383.611 100.553 383.604 100.673 383.577ZM113.711 364.833L100.623 380.37L91.0319 362.869L113.711 364.833Z" fill="#86E29B"/>
<path d="M537.609 147.349C531.95 141.007 564.997 156.078 563.903 164.654C562.804 173.229 546.492 174.987 550.128 167.484C553.205 161.138 546.645 157.476 537.609 147.349Z" fill="#FBC49D"/>
<path d="M198.228 138.567C198.258 138.559 198.291 138.552 198.325 138.545C202.111 137.638 204.454 133.827 203.549 130.049C203.111 128.219 201.983 126.67 200.378 125.686C198.772 124.702 196.879 124.406 195.041 124.843C193.206 125.282 191.654 126.408 190.667 128.012C189.68 129.615 189.379 131.508 189.817 133.338C190.255 135.169 191.383 136.717 192.989 137.702C194.568 138.666 196.425 138.973 198.228 138.567ZM195.528 126.564C196.875 126.26 198.261 126.49 199.438 127.209C200.639 127.943 201.478 129.1 201.805 130.464C202.481 133.283 200.732 136.127 197.907 136.802C196.536 137.132 195.124 136.907 193.927 136.172C192.726 135.438 191.887 134.281 191.56 132.917C191.233 131.552 191.458 130.139 192.194 128.944C192.931 127.748 194.091 126.907 195.458 126.579C195.479 126.575 195.503 126.57 195.528 126.564Z" fill="#75C4FD"/>
<path d="M415.608 100.811C417.147 100.4 418.792 100.388 420.374 100.392C422.359 100.397 424.297 100.334 426.282 100.197C430.826 99.8856 435.375 99.7055 439.927 99.6484C444.68 99.5876 449.469 99.5818 454.203 100.035C458.44 100.439 462.63 101.195 466.814 101.956C476.801 103.771 486.918 104.624 496.892 106.531C505.286 108.139 513.575 110.223 521.79 112.568C524.918 113.318 528.005 114.462 529.219 114.936C529.638 115.098 529.916 115.529 529.828 115.974C529.811 116.066 529.778 116.147 529.725 116.206C528.185 117.868 525.309 117.037 523.459 116.478C522.25 116.111 518.65 115.506 517.968 115.54C516.722 115.602 515.586 115.677 516.084 117.352C516.698 119.41 519.929 121.012 521.785 121.791C524.864 123.086 528.572 123.536 531.491 125.248C534.507 125.962 537.804 126.815 540.064 127.604C548.289 130.473 556.03 134.43 563.377 139.084C566.851 141.281 570.262 143.636 573.253 146.469C575.587 148.682 578.141 151.363 579.24 154.46C579.93 156.411 579.14 158.101 576.867 157.466C573.328 156.484 571.791 153.441 569.846 150.66C565.403 144.304 558.368 139.858 551.378 136.774C547.877 135.232 544.246 133.995 540.558 132.986C536.595 131.903 532.466 130.825 528.338 130.819C523.965 130.81 519.68 131.785 515.345 132.217C511.346 132.616 507.471 132.254 503.583 131.252C499.684 130.247 495.934 128.766 492.145 127.42C489.401 126.445 486.285 125.833 483.78 124.294C481.623 122.968 481.343 120.953 483.677 119.606C487.489 117.404 491.462 118.915 495.393 119.848C495.413 119.853 495.436 119.856 495.457 119.862C498.738 120.636 502.168 120.553 505.438 119.721C506.252 119.515 506.911 119.354 507.22 119.236C508.539 118.731 509.974 117.301 509.316 115.777C508.589 114.098 506.249 113.171 504.682 112.555C502.121 111.549 499.405 110.893 496.695 110.431C495.994 110.31 495.275 110.187 494.549 110.085C492.78 110.008 491.018 109.978 489.266 109.996C484.818 110.036 480.396 110.545 475.952 110.137C472.032 109.776 468.181 108.931 464.36 108.009C460.146 106.991 455.998 106.029 451.649 105.828C447.257 105.627 442.788 105.941 438.46 106.708C434.406 107.426 430.434 108.597 426.324 108.981C423.19 109.276 420.164 108.875 417.112 108.198C415.35 107.806 412.526 107.233 411.815 105.303C410.991 103.062 413.817 101.287 415.608 100.811Z" fill="url(#paint14_linear_132_2115)"/>
<path d="M455.45 282.083C444.745 271.471 411.564 253.328 380.473 260.338L428.097 218.286L455.45 282.083Z" fill="#333333"/>
<path d="M410.886 81.7021C423.65 76.2046 455.46 78.3838 470.12 107.181C484.779 135.976 478.337 152.498 500.278 162.877C522.22 173.256 528.909 201.43 528.909 201.43C528.909 201.43 523.812 209.349 509.116 214.486C494.421 219.625 483.216 211.963 466.476 222.789C449.736 233.614 375.7 190.521 375.7 190.521C375.7 190.521 385.404 175.918 389.502 153.938C386.638 136.125 379.462 115.526 385.492 101.705C391.514 87.8819 398.737 81.055 410.886 81.7021Z" fill="#333333"/>
<path d="M384.477 170.312L420.782 173.36C424.59 173.679 428.281 174.827 431.596 176.718L434.358 178.294C435.126 178.853 435.928 179.455 436.757 180.088L433.594 203.27C432.148 201.984 430.73 200.762 429.361 199.622C430.388 258.838 391.154 284.425 391.154 284.425L329.39 233.325C366.438 226.116 384.477 170.312 384.477 170.312Z" fill="#F66A0A"/>
<path d="M403.981 223.999C395.098 217.87 371.051 214.77 359.255 229.344C359.255 229.344 368.527 226.651 375.959 229.509C382.507 235.908 392.025 239.876 392.025 239.876L403.981 223.999Z" fill="#EDA5AC"/>
<path d="M323.018 220.136C323.189 216.698 325.38 213.097 329.526 209.434C344.329 196.356 375.497 189.649 380.953 190.04C380.947 190.039 380.815 190.031 380.596 189.988L384.477 170.312C376.394 168.792 358.88 173.895 355.487 174.9C336.563 180.504 325.181 187.508 318.965 192.397C308.969 200.258 303.651 209.262 303.156 219.159L323.018 220.136Z" fill="#FFD33D"/>
<path d="M166.517 290.806L142.209 311.153L111.317 316.79L148.439 338.848L180.734 312.981L166.517 290.806Z" fill="#FFD33D"/>
<path d="M196.466 372.505L189.609 389.57L173.965 408.084L220.835 398.983L221.355 380.439L196.466 372.505Z" fill="#FFD33D"/>
<path d="M402.275 166.882C387.134 162.823 378.165 147.279 382.245 132.162L389.828 104.07C393.908 88.9553 409.49 79.9902 424.635 84.0485C439.776 88.1076 448.745 103.651 444.665 118.769L437.083 146.86C433.001 161.975 417.419 170.94 402.275 166.882Z" fill="#EDA5AC"/>
<path d="M405.756 188.227C400.919 187.164 397.867 182.387 398.938 177.562L405.56 147.701L423.07 151.552L416.449 181.413C415.378 186.238 410.592 189.29 405.756 188.227Z" fill="#EDA5AC"/>
<path d="M405.02 95.6144C405.027 103.589 409.817 112.536 422.375 120.344C434.934 128.154 439.77 137.454 437.942 144.225L448.19 111.483L445.445 98.0179L433.206 82.7114L411.931 82.5664L396.785 87.3943L385.872 108.843L385.881 118.683C385.884 118.679 395.126 99.4385 405.02 95.6144Z" fill="#333333"/>
<path d="M405.224 153.561C408.943 152.723 412.707 151.228 415.382 149.346L414.491 148.083C409.663 151.483 400.725 153.603 396.096 152.445L395.716 153.944C398.192 154.56 401.686 154.359 405.224 153.561Z" fill="white"/>
<path d="M252.772 269.071C241.263 271.665 229.835 264.46 227.246 252.978C224.656 241.495 231.886 230.083 243.394 227.489C254.902 224.894 266.329 232.099 268.919 243.582C271.509 255.064 264.279 266.476 252.772 269.071Z" fill="#606060"/>
<path d="M156.23 299.318L235.807 230.856L260.311 265.692L174.356 325.085L156.23 299.318Z" fill="#606060"/>
<path d="M344.589 293.784L243.114 268.958L250.633 227.111L340.084 239.122L344.589 293.784Z" fill="#606060"/>
<path d="M248.119 248.442C248.029 248.462 247.94 248.405 247.92 248.316C247.9 248.226 247.956 248.137 248.046 248.118C248.135 248.097 248.224 248.153 248.245 248.242C248.266 248.332 248.209 248.421 248.119 248.442Z" fill="#606060"/>
<path d="M255.849 303.886C244.34 306.481 232.912 299.274 230.323 287.792C227.733 276.309 234.963 264.897 246.47 262.303C257.978 259.708 269.406 266.914 271.996 278.397C274.586 289.879 267.356 301.291 255.849 303.886Z" fill="#333333"/>
<path d="M196.466 372.505L232.023 273.654L270.247 292.545L228.429 382.877L196.466 372.505Z" fill="#333333"/>
<path d="M355.473 295.416L262.873 297.829L258.452 263.052L355.473 295.416Z" fill="#333333"/>
<path d="M344.589 293.783C363.953 300.489 391.155 284.428 391.155 284.428C391.155 284.428 373.273 243.54 340.084 239.121C306.896 234.703 270.574 267.094 270.574 267.094L344.589 293.783Z" fill="#606060"/>
<path d="M249.627 227.014L374.724 243.939L375.431 238.809L250.351 221.765L249.627 227.014Z" fill="#333333"/>
<path d="M298.424 172.863L304.964 173.755C307.323 174.076 309.346 175.6 310.301 177.775L334.643 233.252L330.254 232.655L298.424 172.863Z" fill="#606060"/>
<path d="M227.839 163.246L300.038 173.086C302.619 173.438 304.832 175.1 305.884 177.48L330.258 232.657L334.646 233.255L250.354 221.767L225.837 165.895C225.237 164.532 226.365 163.045 227.839 163.246Z" fill="#333333"/>
<path d="M330.868 224.65C336.1 225.014 343.47 228.728 346.344 234.84L334.643 233.252L330.868 224.65Z" fill="#EDA5AC"/>
<path d="M400.138 245.399C407.495 250.25 407.965 250.291 416.835 254.18L415.41 256.743L400.138 245.399Z" fill="#F66A0A"/>
<path d="M437.269 149.431C434.41 147.946 433.299 144.427 434.788 141.573L436.868 137.588C438.357 134.734 441.884 133.622 444.743 135.106L446.059 135.788C449.583 137.62 450.283 142.357 447.435 145.127L444.04 148.43C442.236 150.189 439.506 150.593 437.269 149.431Z" fill="#EDA5AC"/>
<path d="M329.619 237.901L369.585 243.25C372.426 243.629 375.042 241.643 375.431 238.808L330.257 232.651L329.619 237.901Z" fill="#333333"/>
<path d="M359.255 229.344L356.901 232.616C356.298 233.451 356.705 234.633 357.694 234.923C358.173 235.062 358.692 234.955 359.076 234.636L366.779 228.221L362.44 227.66L359.255 229.344Z" fill="#EDA5AC"/>
<path d="M366.779 228.222L366.107 229.349C365.111 231.015 365.763 233.174 367.519 234.007L369.208 234.808C371.931 236.101 375.013 236.449 377.956 235.791L382.993 234.669L375.288 226.101L366.262 226.5L366.779 228.222Z" fill="#EDA5AC"/>
<path d="M375.698 190.521C377.007 188.18 378.793 184.261 378.793 184.261C378.793 184.261 371.331 190.42 368.144 192.069" fill="#F66A0A"/>
<path d="M403.981 223.999C420.047 236.045 443.12 244.382 454.114 242.243C454.369 242.192 454.619 242.138 454.867 242.076C457.524 241.404 458.023 240.322 458.261 239.803C460.327 235.32 454.267 225.51 448.45 218.472C443.954 213.032 438.623 207.753 433.594 203.274L436.757 180.091C444.737 186.199 455.381 195.653 463.797 205.831C477.432 222.327 481.649 236.544 476.33 248.086C473.245 254.778 467.509 259.354 459.736 261.319C459.156 261.465 458.57 261.598 457.977 261.712C446.891 263.869 434.025 260.622 424.974 257.413C413.445 253.322 401.435 246.931 392.025 239.88L403.981 223.999Z" fill="#FFD33D"/>
<path d="M272.74 200.71C270.059 201.314 267.396 199.635 266.792 196.96C266.189 194.284 267.873 191.625 270.554 191.021C273.236 190.416 275.898 192.095 276.502 194.77C277.105 197.446 275.421 200.105 272.74 200.71Z" fill="#606060"/>
<path d="M400.889 168.759L390.862 165.827L389.735 170.753L384.477 170.311C384.477 170.311 368.262 207.426 354.941 219.223C354.941 219.223 377.558 205.089 395.231 181.441C398.022 177.708 399.978 173.405 400.875 168.838L400.889 168.759Z" fill="#FFD33D"/>
<path d="M412.759 168.531L416.167 182.408L442.58 261.854L443.54 264.748C448.584 279.918 462.604 290.31 478.616 290.745L483.15 290.87L466.41 261.28L465.291 259.302L433.592 203.277L436.755 180.095C436.755 180.095 432.623 176.274 427.359 174.54L428.468 169.745L412.759 168.531Z" fill="#FFD33D"/>
<path d="M466.413 261.279C461.011 264.484 448.606 265.884 443.54 264.748L442.58 261.854C447.736 262.56 453.034 262.672 457.976 261.709L459.732 261.316C461.724 260.813 463.582 260.141 465.293 259.299L466.413 261.279Z" fill="#F66A0A"/>
<path d="M294.729 321.205C294.768 321.203 294.808 321.201 294.845 321.196C298.686 320.899 302.532 320.739 306.382 320.53C310.607 320.303 314.775 319.727 318.961 319.113C325.245 318.193 331.499 317.024 337.618 315.293C340.766 314.402 343.836 313.267 346.997 312.415C350.05 311.591 353.154 310.983 356.27 310.47C362.191 309.499 368.299 309.075 374.044 307.27C379.971 305.408 385.527 302.499 390.955 299.523C396.52 296.469 402.079 293.777 408.351 292.449C410.893 291.911 413.993 291.383 416.464 292.47C418.413 293.329 419.562 295.639 418.742 297.687C417.775 300.103 414.658 301.43 412.442 302.354C409.137 303.733 405.668 304.708 402.201 305.598C398.564 306.532 394.95 307.539 391.343 308.565C389.638 309.719 388.063 311.107 386.505 312.435C383.418 315.066 380.302 317.422 376.364 318.608C367.661 321.225 358.404 319.087 349.516 319.278C348.764 319.296 348.008 319.318 347.249 319.344C342.855 320.048 338.448 320.665 334.053 321.394C327.397 322.495 320.752 323.708 314.047 324.469C308.513 325.096 297.39 325.541 297.39 325.541L294.494 324.946C292.346 324.512 292.541 321.383 294.729 321.205Z" fill="url(#paint15_linear_132_2115)"/>
<path d="M588.66 234.706C596.312 226.547 606.454 211.279 603.625 198.736C602.793 189.514 591.176 181.404 578.691 184.434C571.805 186.108 565.986 193.023 570.588 196.481C571.892 197.46 573.742 197.936 575.443 198.535C590.717 203.935 591.981 222.408 577.707 231.623C571.94 235.346 564.734 237.417 558.341 240.477C541.376 248.602 540.215 267.907 522.667 275.206C514.928 278.424 506.328 279.971 498.466 282.979C483.623 288.66 472.415 299.141 457.576 304.828C450.358 307.595 440.198 310.884 430.456 313.876C427.573 314.76 428.629 317.807 431.578 317.118C431.638 317.103 431.696 317.09 431.753 317.074C438.953 315.346 446.145 313.506 453.174 311.297C471.77 305.448 490.112 298.119 507.62 290.362C542.705 274.826 565.087 259.845 588.66 234.706Z" fill="url(#paint16_linear_132_2115)"/>
<path d="M458.185 323.25C464.679 314.013 477.441 312.361 487.787 310.979C493.281 310.243 498.879 309.726 504.249 308.284C510.805 306.521 516.806 302.966 522.302 299.07C523.942 297.907 526.527 295.941 528.264 294.604C529.422 293.713 530.51 292.739 531.52 291.688C533.98 289.125 539.042 283.992 542.085 281.862C544.384 280.254 550.502 278.241 551.056 282.671C551.464 285.927 548.48 289.616 546.39 291.798C542.359 296.011 537.266 299.357 532.154 302.104C526.749 305.007 521.019 307.271 515.211 309.237C512.323 310.214 509.408 311.113 506.479 311.966C504.341 312.591 502.122 313.069 500.031 313.845C497.139 314.918 494.212 316.465 491.388 317.853C487.615 319.703 483.835 321.558 479.968 323.205C475.954 324.915 471.737 326.6 467.389 327.214C464.248 327.656 460.658 327.559 458.353 325.066C457.924 324.599 457.805 323.79 458.185 323.25Z" fill="url(#paint17_linear_132_2115)"/>
<path d="M250.365 359.155C297.269 355.186 311.569 347.435 285.04 340.853C258.509 334.271 246.975 342.656 248.162 348.428C249.348 354.203 236.672 355.774 220.794 356.541C204.919 357.308 203.107 361.394 250.365 359.155Z" fill="url(#paint18_linear_132_2115)"/>
<defs>
<linearGradient id="paint0_linear_132_2115" x1="429.811" y1="337.57" x2="384.39" y2="359.855" gradientUnits="userSpaceOnUse">
<stop stop-color="#FFE466"/>
<stop offset="1" stop-color="#FFAFEA"/>
</linearGradient>
<linearGradient id="paint1_linear_132_2115" x1="343.545" y1="406.191" x2="240.343" y2="540.394" gradientUnits="userSpaceOnUse">
<stop stop-color="#75C3FC"/>
<stop offset="0.0929" stop-color="#81C2F6"/>
<stop offset="1" stop-color="#F0B8BD"/>
</linearGradient>
<linearGradient id="paint2_linear_132_2115" x1="360.651" y1="154.788" x2="760.954" y2="141.029" gradientUnits="userSpaceOnUse">
<stop stop-color="#FFE466"/>
<stop offset="1" stop-color="#FFAFEA"/>
</linearGradient>
<linearGradient id="paint3_linear_132_2115" x1="350.511" y1="116.546" x2="481.41" y2="94.3319" gradientUnits="userSpaceOnUse">
<stop stop-color="#FFE466"/>
<stop offset="1" stop-color="#FFAFEA"/>
</linearGradient>
<linearGradient id="paint4_linear_132_2115" x1="301.832" y1="151.024" x2="132.672" y2="235.095" gradientUnits="userSpaceOnUse">
<stop stop-color="#FFE466"/>
<stop offset="1" stop-color="#FFAFEA"/>
</linearGradient>
<linearGradient id="paint5_linear_132_2115" x1="28.2382" y1="252.285" x2="226.043" y2="196.893" gradientUnits="userSpaceOnUse">
<stop stop-color="#75C3FC"/>
<stop offset="0.0929" stop-color="#81C2F6"/>
<stop offset="1" stop-color="#F0B8BD"/>
</linearGradient>
<linearGradient id="paint6_linear_132_2115" x1="62.9495" y1="310.039" x2="57.306" y2="311.312" gradientUnits="userSpaceOnUse">
<stop stop-color="#75C3FC"/>
<stop offset="1" stop-color="#75C3FC"/>
</linearGradient>
<linearGradient id="paint7_linear_132_2115" x1="515.347" y1="245.795" x2="509.703" y2="247.068" gradientUnits="userSpaceOnUse">
<stop stop-color="#75C3FC"/>
<stop offset="1" stop-color="#75C3FC"/>
</linearGradient>
<linearGradient id="paint8_linear_132_2115" x1="449.966" y1="328.14" x2="444.322" y2="329.413" gradientUnits="userSpaceOnUse">
<stop stop-color="#75C3FC"/>
<stop offset="1" stop-color="#75C3FC"/>
</linearGradient>
<linearGradient id="paint9_linear_132_2115" x1="165.342" y1="363.831" x2="159.698" y2="365.103" gradientUnits="userSpaceOnUse">
<stop stop-color="#75C3FC"/>
<stop offset="1" stop-color="#75C3FC"/>
</linearGradient>
<linearGradient id="paint10_linear_132_2115" x1="176.866" y1="114.947" x2="171.224" y2="116.22" gradientUnits="userSpaceOnUse">
<stop stop-color="#75C3FC"/>
<stop offset="1" stop-color="#75C3FC"/>
</linearGradient>
<linearGradient id="paint11_linear_132_2115" x1="501.757" y1="210.702" x2="496.114" y2="211.974" gradientUnits="userSpaceOnUse">
<stop stop-color="#75C3FC"/>
<stop offset="1" stop-color="#75C3FC"/>
</linearGradient>
<linearGradient id="paint12_linear_132_2115" x1="516.191" y1="328.894" x2="510.548" y2="330.166" gradientUnits="userSpaceOnUse">
<stop stop-color="#75C3FC"/>
<stop offset="1" stop-color="#75C3FC"/>
</linearGradient>
<linearGradient id="paint13_linear_132_2115" x1="501.498" y1="49.6867" x2="492.269" y2="51.4256" gradientUnits="userSpaceOnUse">
<stop stop-color="#75C3FC"/>
<stop offset="1" stop-color="#75C3FC"/>
</linearGradient>
<linearGradient id="paint14_linear_132_2115" x1="402.47" y1="117.51" x2="657.862" y2="143.289" gradientUnits="userSpaceOnUse">
<stop stop-color="#FFE466"/>
<stop offset="1" stop-color="#FFAFEA"/>
</linearGradient>
<linearGradient id="paint15_linear_132_2115" x1="471.836" y1="270.374" x2="95.061" y2="407.502" gradientUnits="userSpaceOnUse">
<stop stop-color="#FFE466"/>
<stop offset="1" stop-color="#FFAFEA"/>
</linearGradient>
<linearGradient id="paint16_linear_132_2115" x1="610.021" y1="226.895" x2="418.457" y2="269.71" gradientUnits="userSpaceOnUse">
<stop stop-color="#75C3FC"/>
<stop offset="0.0929" stop-color="#81C2F6"/>
<stop offset="1" stop-color="#F0B8BD"/>
</linearGradient>
<linearGradient id="paint17_linear_132_2115" x1="553.455" y1="293.207" x2="455.929" y2="315.201" gradientUnits="userSpaceOnUse">
<stop stop-color="#75C3FC"/>
<stop offset="0.0929" stop-color="#81C2F6"/>
<stop offset="1" stop-color="#F0B8BD"/>
</linearGradient>
<linearGradient id="paint18_linear_132_2115" x1="296.849" y1="341.21" x2="211.198" y2="360.526" gradientUnits="userSpaceOnUse">
<stop stop-color="#FFE466"/>
<stop offset="1" stop-color="#FFAFEA"/>
</linearGradient>
</defs>
</svg>
