<svg width="149" height="34" viewBox="0 0 149 34" fill="none" xmlns="http://www.w3.org/2000/svg">
<rect x="0.638916" y="0.567383" width="147.604" height="32.2204" rx="16.1102" fill="#484848" fill-opacity="0.64"/>
<path d="M25.7998 19.2026L25.7998 19.8338C25.7998 20.8797 26.6477 21.7275 27.6935 21.7275L34.0059 21.7275C35.0518 21.7275 35.8997 20.8797 35.8997 19.8338L35.8997 19.2026M33.3747 14.1526L30.8497 11.6277M30.8497 11.6277L28.3248 14.1526M30.8497 11.6277L30.8497 19.2026" stroke="white" stroke-width="1.26248" stroke-linecap="round" stroke-linejoin="round"/>
<path d="M51.6169 12.0629H53.3587V18.3445C53.3587 19.033 53.1959 19.6386 52.8704 20.1613C52.5481 20.684 52.0942 21.0925 51.509 21.3867C50.9237 21.6777 50.2398 21.8233 49.4573 21.8233C48.6718 21.8233 47.9863 21.6777 47.401 21.3867C46.8158 21.0925 46.3619 20.684 46.0396 20.1613C45.7172 19.6386 45.556 19.033 45.556 18.3445V12.0629H47.2978V18.1989C47.2978 18.5995 47.3854 18.9563 47.5607 19.2693C47.7391 19.5823 47.9895 19.828 48.3118 20.0064C48.6342 20.1817 49.016 20.2693 49.4573 20.2693C49.8987 20.2693 50.2805 20.1817 50.6029 20.0064C50.9284 19.828 51.1788 19.5823 51.354 19.2693C51.5293 18.9563 51.6169 18.5995 51.6169 18.1989V12.0629ZM55.1767 24.3819V14.4666H56.8481V15.6591H56.9467C57.0343 15.4838 57.1579 15.2976 57.3175 15.1004C57.4772 14.9001 57.6931 14.7295 57.9654 14.5887C58.2377 14.4447 58.5851 14.3727 59.0077 14.3727C59.5648 14.3727 60.0671 14.5151 60.5147 14.7999C60.9654 15.0816 61.3222 15.4994 61.5851 16.0534C61.8511 16.6043 61.9841 17.2803 61.9841 18.0816C61.9841 18.8734 61.8542 19.5463 61.5945 20.1003C61.3347 20.6543 60.981 21.0768 60.5334 21.3679C60.0859 21.659 59.5788 21.8045 59.0123 21.8045C58.5992 21.8045 58.2565 21.7356 57.9842 21.5979C57.7119 21.4602 57.4928 21.2943 57.3269 21.1003C57.1642 20.9031 57.0374 20.7169 56.9467 20.5416H56.8762V24.3819H55.1767ZM56.8434 18.0722C56.8434 18.5385 56.9091 18.947 57.0405 19.2975C57.1751 19.648 57.3676 19.9219 57.618 20.1191C57.8715 20.3131 58.1782 20.4102 58.5382 20.4102C58.9138 20.4102 59.2283 20.31 59.4818 20.1097C59.7353 19.9062 59.9263 19.6293 60.0546 19.2787C60.186 18.925 60.2518 18.5229 60.2518 18.0722C60.2518 17.6246 60.1876 17.2271 60.0593 16.8797C59.931 16.5323 59.74 16.26 59.4865 16.0628C59.233 15.8656 58.9169 15.767 58.5382 15.767C58.1751 15.767 57.8668 15.8625 57.6133 16.0534C57.3598 16.2443 57.1673 16.5119 57.0359 16.8562C56.9075 17.2005 56.8434 17.6058 56.8434 18.0722ZM65.139 12.0629V21.6777H63.4395V12.0629H65.139ZM70.0321 21.8186C69.3279 21.8186 68.7176 21.6637 68.2012 21.3538C67.6847 21.0439 67.2841 20.6105 66.9993 20.0533C66.7176 19.4962 66.5768 18.8452 66.5768 18.1003C66.5768 17.3554 66.7176 16.7029 66.9993 16.1426C67.2841 15.5824 67.6847 15.1473 68.2012 14.8375C68.7176 14.5276 69.3279 14.3727 70.0321 14.3727C70.7363 14.3727 71.3466 14.5276 71.8631 14.8375C72.3795 15.1473 72.7785 15.5824 73.0602 16.1426C73.345 16.7029 73.4874 17.3554 73.4874 18.1003C73.4874 18.8452 73.345 19.4962 73.0602 20.0533C72.7785 20.6105 72.3795 21.0439 71.8631 21.3538C71.3466 21.6637 70.7363 21.8186 70.0321 21.8186ZM70.0415 20.4571C70.4233 20.4571 70.7426 20.3522 70.9992 20.1425C71.2559 19.9297 71.4468 19.6449 71.572 19.2881C71.7003 18.9313 71.7645 18.5338 71.7645 18.0956C71.7645 17.6543 71.7003 17.2553 71.572 16.8985C71.4468 16.5385 71.2559 16.2522 70.9992 16.0393C70.7426 15.8265 70.4233 15.7201 70.0415 15.7201C69.6503 15.7201 69.3248 15.8265 69.065 16.0393C68.8083 16.2522 68.6159 16.5385 68.4875 16.8985C68.3623 17.2553 68.2997 17.6543 68.2997 18.0956C68.2997 18.5338 68.3623 18.9313 68.4875 19.2881C68.6159 19.6449 68.8083 19.9297 69.065 20.1425C69.3248 20.3522 69.6503 20.4571 70.0415 20.4571ZM77.005 21.8233C76.548 21.8233 76.1365 21.7419 75.7703 21.5791C75.4072 21.4133 75.1193 21.1691 74.9064 20.8468C74.6967 20.5244 74.5919 20.1269 74.5919 19.6543C74.5919 19.2474 74.667 18.911 74.8172 18.6449C74.9675 18.3789 75.1725 18.1661 75.4322 18.0064C75.692 17.8468 75.9847 17.7263 76.3102 17.6449C76.6388 17.5604 76.9784 17.4994 77.3289 17.4618C77.7515 17.418 78.0942 17.3789 78.3571 17.3445C78.62 17.3069 78.8109 17.2506 78.9298 17.1755C79.0519 17.0972 79.1129 16.9767 79.1129 16.814V16.7858C79.1129 16.4321 79.0081 16.1583 78.7984 15.9642C78.5887 15.7702 78.2867 15.6731 77.8923 15.6731C77.476 15.6731 77.1458 15.7639 76.9017 15.9454C76.6607 16.127 76.498 16.3414 76.4135 16.5886L74.8266 16.3633C74.9518 15.9251 75.1584 15.5589 75.4463 15.2647C75.7343 14.9674 76.0864 14.7451 76.5027 14.598C76.9189 14.4478 77.379 14.3727 77.8829 14.3727C78.2303 14.3727 78.5762 14.4134 78.9205 14.4948C79.2647 14.5761 79.5793 14.7107 79.8641 14.8985C80.1489 15.0832 80.3774 15.3351 80.5495 15.6544C80.7248 15.9736 80.8124 16.3727 80.8124 16.8515V21.6777H79.1787V20.6871H79.1223C79.019 20.8875 78.8735 21.0752 78.6857 21.2505C78.5011 21.4227 78.2679 21.5619 77.9862 21.6683C77.7076 21.7716 77.3806 21.8233 77.005 21.8233ZM77.4463 20.5745C77.7874 20.5745 78.0832 20.5072 78.3336 20.3726C78.584 20.2349 78.7765 20.0533 78.9111 19.828C79.0488 19.6027 79.1176 19.357 79.1176 19.0909V18.2412C79.0644 18.285 78.9737 18.3257 78.8453 18.3632C78.7201 18.4008 78.5793 18.4337 78.4228 18.4618C78.2663 18.49 78.1114 18.515 77.958 18.5369C77.8047 18.5589 77.6716 18.5776 77.559 18.5933C77.3055 18.6277 77.0785 18.684 76.8782 18.7623C76.6779 18.8405 76.5199 18.9501 76.4041 19.0909C76.2883 19.2286 76.2304 19.407 76.2304 19.6261C76.2304 19.9391 76.3446 20.1754 76.5731 20.335C76.8016 20.4947 77.0926 20.5745 77.4463 20.5745ZM85.1973 21.8045C84.6308 21.8045 84.1238 21.659 83.6762 21.3679C83.2287 21.0768 82.875 20.6543 82.6152 20.1003C82.3554 19.5463 82.2256 18.8734 82.2256 18.0816C82.2256 17.2803 82.357 16.6043 82.6199 16.0534C82.886 15.4994 83.2443 15.0816 83.695 14.7999C84.1457 14.5151 84.648 14.3727 85.202 14.3727C85.6246 14.3727 85.972 14.4447 86.2443 14.5887C86.5166 14.7295 86.7325 14.9001 86.8921 15.1004C87.0518 15.2976 87.1754 15.4838 87.263 15.6591H87.3334V12.0629H89.0376V21.6777H87.3663V20.5416H87.263C87.1754 20.7169 87.0486 20.9031 86.8828 21.1003C86.7169 21.2943 86.4978 21.4602 86.2255 21.5979C85.9532 21.7356 85.6105 21.8045 85.1973 21.8045ZM85.6715 20.4102C86.0314 20.4102 86.3382 20.3131 86.5917 20.1191C86.8452 19.9219 87.0377 19.648 87.1691 19.2975C87.3006 18.947 87.3663 18.5385 87.3663 18.0722C87.3663 17.6058 87.3006 17.2005 87.1691 16.8562C87.0408 16.5119 86.8499 16.2443 86.5964 16.0534C86.346 15.8625 86.0377 15.767 85.6715 15.767C85.2928 15.767 84.9767 15.8656 84.7232 16.0628C84.4696 16.26 84.2787 16.5323 84.1504 16.8797C84.0221 17.2271 83.9579 17.6246 83.9579 18.0722C83.9579 18.5229 84.0221 18.925 84.1504 19.2787C84.2819 19.6293 84.4743 19.9062 84.7279 20.1097C84.9845 20.31 85.2991 20.4102 85.6715 20.4102ZM94.203 21.6777V12.0629H95.9448V20.2177H100.179V21.6777H94.203ZM104.762 21.8186C104.057 21.8186 103.447 21.6637 102.931 21.3538C102.414 21.0439 102.014 20.6105 101.729 20.0533C101.447 19.4962 101.306 18.8452 101.306 18.1003C101.306 17.3554 101.447 16.7029 101.729 16.1426C102.014 15.5824 102.414 15.1473 102.931 14.8375C103.447 14.5276 104.057 14.3727 104.762 14.3727C105.466 14.3727 106.076 14.5276 106.593 14.8375C107.109 15.1473 107.508 15.5824 107.79 16.1426C108.074 16.7029 108.217 17.3554 108.217 18.1003C108.217 18.8452 108.074 19.4962 107.79 20.0533C107.508 20.6105 107.109 21.0439 106.593 21.3538C106.076 21.6637 105.466 21.8186 104.762 21.8186ZM104.771 20.4571C105.153 20.4571 105.472 20.3522 105.729 20.1425C105.985 19.9297 106.176 19.6449 106.301 19.2881C106.43 18.9313 106.494 18.5338 106.494 18.0956C106.494 17.6543 106.43 17.2553 106.301 16.8985C106.176 16.5385 105.985 16.2522 105.729 16.0393C105.472 15.8265 105.153 15.7201 104.771 15.7201C104.38 15.7201 104.054 15.8265 103.794 16.0393C103.538 16.2522 103.345 16.5385 103.217 16.8985C103.092 17.2553 103.029 17.6543 103.029 18.0956C103.029 18.5338 103.092 18.9313 103.217 19.2881C103.345 19.6449 103.538 19.9297 103.794 20.1425C104.054 20.3522 104.38 20.4571 104.771 20.4571ZM112.795 24.5321C112.185 24.5321 111.661 24.4492 111.223 24.2833C110.785 24.1206 110.432 23.9015 110.166 23.6261C109.9 23.3506 109.716 23.0455 109.612 22.7106L111.143 22.3397C111.212 22.4805 111.312 22.6198 111.443 22.7575C111.575 22.8984 111.752 23.0142 111.974 23.1049C112.199 23.1988 112.482 23.2458 112.824 23.2458C113.306 23.2458 113.705 23.1284 114.021 22.8937C114.337 22.6621 114.495 22.2802 114.495 21.7482V20.382H114.41C114.323 20.5573 114.194 20.7372 114.025 20.9219C113.86 21.1065 113.639 21.2615 113.364 21.3867C113.091 21.5119 112.748 21.5744 112.335 21.5744C111.781 21.5744 111.279 21.4446 110.828 21.1848C110.381 20.9219 110.024 20.5306 109.758 20.0111C109.495 19.4884 109.364 18.8343 109.364 18.0487C109.364 17.2568 109.495 16.5886 109.758 16.044C110.024 15.4963 110.382 15.0816 110.833 14.7999C111.284 14.5151 111.786 14.3727 112.34 14.3727C112.763 14.3727 113.11 14.4447 113.382 14.5887C113.658 14.7295 113.877 14.9001 114.04 15.1004C114.202 15.2976 114.326 15.4838 114.41 15.6591H114.504V14.4666H116.18V21.7951C116.18 22.4117 116.033 22.9218 115.739 23.3256C115.445 23.7293 115.043 24.0314 114.533 24.2317C114.022 24.432 113.443 24.5321 112.795 24.5321ZM112.81 20.2411C113.169 20.2411 113.476 20.1535 113.73 19.9782C113.983 19.803 114.176 19.551 114.307 19.2224C114.439 18.8937 114.504 18.4994 114.504 18.0393C114.504 17.5855 114.439 17.188 114.307 16.8468C114.179 16.5057 113.988 16.2412 113.734 16.0534C113.484 15.8625 113.176 15.767 112.81 15.767C112.431 15.767 112.115 15.8656 111.861 16.0628C111.608 16.26 111.417 16.5307 111.288 16.875C111.16 17.2162 111.096 17.6043 111.096 18.0393C111.096 18.4806 111.16 18.8671 111.288 19.1989C111.42 19.5275 111.612 19.7842 111.866 19.9688C112.123 20.1504 112.437 20.2411 112.81 20.2411ZM121.068 21.8186C120.363 21.8186 119.753 21.6637 119.237 21.3538C118.72 21.0439 118.32 20.6105 118.035 20.0533C117.753 19.4962 117.612 18.8452 117.612 18.1003C117.612 17.3554 117.753 16.7029 118.035 16.1426C118.32 15.5824 118.72 15.1473 119.237 14.8375C119.753 14.5276 120.363 14.3727 121.068 14.3727C121.772 14.3727 122.382 14.5276 122.899 14.8375C123.415 15.1473 123.814 15.5824 124.096 16.1426C124.381 16.7029 124.523 17.3554 124.523 18.1003C124.523 18.8452 124.381 19.4962 124.096 20.0533C123.814 20.6105 123.415 21.0439 122.899 21.3538C122.382 21.6637 121.772 21.8186 121.068 21.8186ZM121.077 20.4571C121.459 20.4571 121.778 20.3522 122.035 20.1425C122.291 19.9297 122.482 19.6449 122.607 19.2881C122.736 18.9313 122.8 18.5338 122.8 18.0956C122.8 17.6543 122.736 17.2553 122.607 16.8985C122.482 16.5385 122.291 16.2522 122.035 16.0393C121.778 15.8265 121.459 15.7201 121.077 15.7201C120.686 15.7201 120.36 15.8265 120.1 16.0393C119.844 16.2522 119.651 16.5385 119.523 16.8985C119.398 17.2553 119.335 17.6543 119.335 18.0956C119.335 18.5338 119.398 18.9313 119.523 19.2881C119.651 19.6449 119.844 19.9297 120.1 20.1425C120.36 20.3522 120.686 20.4571 121.077 20.4571Z" fill="white"/>
<rect x="0.638916" y="0.567383" width="147.604" height="32.2204" rx="16.1102" stroke="black"/>
</svg>
